<?xml version="1.0" encoding="utf-8"?>
<!-- Generator: Adobe Illustrator 24.1.2, SVG Export Plug-In . SVG Version: 6.00 Build 0)  -->
<svg version="1.1" id="Warstwa_1" xmlns:bx="https://boxy-svg.com"
	 xmlns="http://www.w3.org/2000/svg" xmlns:xlink="http://www.w3.org/1999/xlink" x="0px" y="0px" viewBox="0 0 155.9 155.9"
	 style="enable-background:new 0 0 155.9 155.9;" xml:space="preserve">
<style type="text/css">
	.st0{fill:#F39200;}
	.st1{fill:#00A19A;}
</style>
<path class="st0" d="M47.3,111.1c-5.1,0-9.8-1.2-13.8-3.7c-4.1-2.4-7.3-5.8-9.7-10c-2.4-4.2-3.6-8.9-3.6-14.2
	c0-5.3,1.2-10.1,3.7-14.3c2.4-4.2,5.8-7.5,10-10c4.2-2.4,9-3.7,14.2-3.7c5.3,0,10,1.2,14.2,3.7c4.2,2.4,7.5,5.8,9.9,10
	c2.4,4.2,3.7,9,3.8,14.3l-3.1,2.4c0,4.8-1.1,9.1-3.4,13c-2.2,3.8-5.3,6.9-9.1,9.1C56.5,110,52.2,111.1,47.3,111.1z M48.1,104.1
	c3.9,0,7.3-0.9,10.4-2.7c3-1.8,5.4-4.3,7.2-7.5c1.8-3.2,2.7-6.7,2.7-10.7c0-4-0.9-7.6-2.7-10.7c-1.8-3.1-4.2-5.6-7.2-7.5
	c-3-1.8-6.5-2.8-10.4-2.8c-3.8,0-7.2,0.9-10.3,2.8c-3.1,1.8-5.5,4.3-7.3,7.5c-1.8,3.1-2.7,6.7-2.7,10.7c0,3.9,0.9,7.5,2.7,10.7
	c1.8,3.2,4.2,5.7,7.3,7.5C40.8,103.2,44.3,104.1,48.1,104.1z M72,110.6c-1.1,0-2.1-0.4-2.8-1.1c-0.7-0.7-1.1-1.6-1.1-2.8V89.7
	l1.9-7.9l5.9,1.5v23.5c0,1.1-0.4,2.1-1.1,2.8C74.1,110.3,73.2,110.6,72,110.6z"/>
<path class="st1" d="M107.7,111.1c-5.2,0-9.9-1.2-14.1-3.6c-4.2-2.4-7.5-5.7-9.9-9.9c-2.4-4.2-3.7-8.9-3.8-14.1V36.3
	c0-1.2,0.3-2.1,1-2.9c0.7-0.7,1.7-1.1,2.9-1.1c1.1,0,2.1,0.4,2.8,1.1c0.7,0.7,1.1,1.7,1.1,2.9v29.5c2.2-3.1,5.1-5.7,8.8-7.6
	c3.6-1.9,7.7-2.9,12.2-2.9c5.1,0,9.7,1.2,13.8,3.7c4.1,2.4,7.3,5.8,9.7,10c2.4,4.2,3.6,8.9,3.6,14.2c0,5.3-1.2,10.1-3.7,14.3
	c-2.4,4.2-5.8,7.5-10,10C117.8,109.9,113.1,111.1,107.7,111.1z M107.7,104.1c3.9,0,7.4-0.9,10.4-2.8c3.1-1.8,5.5-4.3,7.3-7.5
	c1.8-3.1,2.6-6.7,2.6-10.7c0-3.9-0.9-7.5-2.6-10.7c-1.8-3.2-4.2-5.7-7.3-7.5c-3.1-1.8-6.5-2.7-10.4-2.7c-3.8,0-7.2,0.9-10.3,2.7
	c-3.1,1.8-5.5,4.3-7.2,7.5c-1.7,3.2-2.6,6.7-2.6,10.7c0,4,0.9,7.6,2.6,10.7c1.7,3.1,4.1,5.6,7.2,7.5
	C100.5,103.2,103.9,104.1,107.7,104.1z"/>
</svg>
