<svg viewBox="0 75 500 340" xmlns="http://www.w3.org/2000/svg">
  <defs>
    <grid x="0" y="0" width="6.943" height="6.943"></grid>
  </defs>
  <g transform="matrix(1.289814, 0, 0, 1.293645, -66.506721, -78.376114)" style="">
    <title>a</title>
    <g>
      <title>a-shadow</title>
      <rect x="61.561" y="105.93" width="20" height="78.992" style="stroke-linecap: round; stroke-miterlimit: 3; fill: rgb(75, 155, 130);" rx="10" ry="10" transform="matrix(0.000078, 1, -1, 0.000078, 324.8573, 217.097992)">
        <title>a-center-shadow</title>
      </rect>
      <rect x="61.561" y="305.06" width="20" height="227.483" style="stroke-linecap: round; stroke-miterlimit: 3; fill: rgb(75, 155, 130);" rx="10" ry="10" transform="matrix(0.935964, 0.352095, -0.352095, 0.935964, 203.483597, -161.335937)">
        <title>a-shadow</title>
      </rect>
    </g>
    <g>
      <title>a</title>
      <path style="stroke: rgb(0, 0, 0); fill: rgb(127, 188, 169); stroke-width: 0px;" d="M 242.338 346.333 C 247.666 359.186 230.786 364.4 226.332 353.653 L 203.655 293.67 C 177.859 293.67 160.625 293.769 147.348 293.769 C 133.948 293.769 134.657 274.66 147.655 274.66 C 158.868 274.66 177.349 274.578 196.345 274.578 L 158.43 174.546 L 90.819 353.866 C 85.244 367.315 68.32 359.462 73.586 346.758 L 148.988 141.122 C 152.515 132.612 163.838 132.307 167.354 140.787 C 193.683 204.306 212.919 275.358 242.338 346.333 Z">
        <title>a</title>
      </path>
    </g>
  </g>
  <g transform="matrix(1.289814, 0, 0, 1.279028, -64.812424, -74.165833)" style="">
    <title>b</title>
    <g>
      <title>b-shadow</title>
      <path style="paint-order: fill; fill-rule: evenodd; stroke: rgb(0, 0, 0); stroke-width: 0px; fill: rgb(75, 75, 75);" d="M 185.076 135.277 C 214.027 135.277 236.071 134.843 261.593 134.843 C 272.01 134.843 284.721 135.202 295.497 138.173 C 331.804 148.215 335.279 154.017 345.981 164.131 C 351.01 168.889 357.09 177.391 360.457 187.501 C 362.04 192.268 363.281 204.866 362.708 209.382 C 361.826 216.265 361.31 219.482 360.871 221.388 C 360.403 223.292 357.079 230.651 355.875 232.515 C 354.874 234.065 349.852 240.21 346.66 243.892 C 346.618 243.94 343.271 247.809 343.271 247.809 L 348.222 248.874 C 376.1 254.842 396.917 266.045 409.839 286.833 C 420.233 303.612 417.688 315.596 411.086 328.355 C 407.696 334.907 406.979 337.021 401.757 342.518 C 398.773 345.659 394.993 349.132 389.031 353.13 C 384.21 356.362 370.987 363.878 364.948 363.878 C 320.959 363.878 309.868 363.844 266.871 363.844 C 263.019 363.844 260.241 362.658 258.057 360.748 C 255.936 358.776 254.411 355.976 253.038 352.678 L 176.717 148.778 L 176.732 148.846 L 176.713 148.762 L 176.691 148.669 C 175.902 145.008 176.908 141.681 178.601 139.208 C 180.381 136.779 182.816 135.277 185.076 135.277 Z M 201.124 155.421 L 257.75 154.92 C 278.464 156.338 294.585 157.308 307.205 162.133 C 362.239 183.175 349.228 230.874 310.605 245.664 C 307.556 246.832 304.509 247.955 303.297 253.169 C 301.786 259.672 308.549 265.192 313.365 265.202 C 379.615 265.336 414.215 303.569 387.107 327.96 C 380.816 333.62 370.521 343.779 356.752 344.17 C 322.292 345.148 295.253 344.62 271.555 344.62 C 270.922 344.62 270.987 343.462 270.726 342.831 C 261.827 321.348 247.792 283.245 201.124 155.421 Z">
        <title>b-shadow</title>
      </path>
      <rect x="61.561" y="60.52" width="20" height="45.13" style="stroke-linecap: round; stroke-miterlimit: 3; fill: rgb(75, 75, 75);" rx="10" ry="10" transform="matrix(0.000078, 1, -1, 0.000078, 355.257996, 186.712784)">
        <title>b-center-shadow</title>
      </rect>
    </g>
    <g transform="matrix(1, 0, 0, 1, 2.439353, 0)">
      <title>b</title>
      <path style="paint-order: fill; fill-rule: evenodd; stroke: rgb(0, 0, 0); stroke-width: 0px; fill: rgb(114, 114, 114);" d="M 186.504 133.261 C 215.455 133.261 237.499 132.827 263.021 132.827 C 273.438 132.827 285.94 134.088 296.925 136.157 C 321.414 140.769 336.707 152.001 347.409 162.115 C 352.438 166.873 358.518 175.375 361.885 185.485 C 363.468 190.252 364.709 202.85 364.136 207.366 C 363.254 214.249 363.856 212.931 361.21 222.276 C 358.564 231.621 351.836 238.591 346.34 244.338 C 346.296 244.384 344.699 245.793 344.699 245.793 L 349.65 246.858 C 377.528 252.826 398.345 264.029 411.267 284.817 C 421.661 301.596 420.356 313.648 411.865 329.487 C 407.947 336.796 402.732 343.012 392.36 350.707 C 378.635 360.89 370.644 361.916 366.376 361.862 C 322.39 361.312 311.296 361.828 268.299 361.828 C 264.447 361.828 261.669 360.642 259.485 358.732 C 257.364 356.76 255.839 353.96 254.466 350.662 L 178.145 146.762 L 178.16 146.83 L 178.141 146.746 L 178.119 146.653 C 177.33 142.992 178.336 139.665 180.029 137.192 C 181.809 134.763 184.244 133.261 186.504 133.261 Z M 202.552 153.405 L 259.178 152.904 C 279.892 154.322 296.013 155.292 308.633 160.117 C 363.667 181.159 350.656 228.858 312.033 243.648 C 308.984 244.816 305.937 245.939 304.725 251.153 C 303.214 257.656 309.977 263.176 314.793 263.186 C 381.043 263.32 415.643 301.553 388.535 325.944 C 382.244 331.604 371.949 341.763 358.18 342.154 C 323.72 343.132 296.681 342.604 272.983 342.604 C 272.35 342.604 272.415 341.446 272.154 340.815 C 263.255 319.332 249.22 281.229 202.552 153.405 Z">
        <title>b</title>
      </path>
      <rect x="61.561" y="60.52" width="20" height="45.13" style="stroke-linecap: round; stroke-miterlimit: 3; fill: rgb(114, 114, 114);" rx="10" ry="10" transform="matrix(0.000078, 1, -1, 0.000078, 356.872803, 184.003128)">
        <title>b-center</title>
      </rect>
    </g>
  </g>
</svg>